<svg aria-hidden="true" style="position: absolute; width: 0; height: 0; overflow: hidden;" version="1.1" xmlns="http://www.w3.org/2000/svg" xmlns:xlink="http://www.w3.org/1999/xlink">
<defs>

<symbol id="icon-instagram" viewBox="0 0 23 22">
<path fill-rule="evenodd" d="M7.837 0h8.25a6.876 6.876 0 0 1 6.875 6.875v8.25A6.876 6.876 0 0 1 16.087 22h-8.25a6.876 6.876 0 0 1-6.875-6.875v-8.25A6.876 6.876 0 0 1 7.837 0Zm8.25 19.938a4.818 4.818 0 0 0 4.812-4.813v-8.25a4.818 4.818 0 0 0-4.812-4.813h-8.25a4.818 4.818 0 0 0-4.813 4.813v8.25a4.818 4.818 0 0 0 4.813 4.813h8.25Z" clip-rule="evenodd"/>
<path fill-rule="evenodd" d="M6.462 11a5.5 5.5 0 1 1 11 0 5.5 5.5 0 0 1-11 0Zm2.062 0a3.442 3.442 0 0 0 3.438 3.438A3.442 3.442 0 0 0 15.399 11a3.441 3.441 0 0 0-3.437-3.438A3.441 3.441 0 0 0 8.524 11Z" clip-rule="evenodd"/>
<circle cx="17.874" cy="5.088" r=".733" fill="#000"/>
</symbol>

<symbol id="icon-twitter" viewBox="0 0 23 18">
<path d="M22.9617 2.11613C22.1435 2.475 21.2718 2.71288 20.3629 2.82838C21.2979 2.27013 22.0115 1.39287 22.347 0.3355C21.4753 0.85525 20.5128 1.22238 19.487 1.42725C18.6593 0.545875 17.4795 0 16.1925 0C13.6955 0 11.6853 2.02675 11.6853 4.51137C11.6853 4.86888 11.7155 5.21263 11.7898 5.53988C8.04017 5.357 4.72229 3.55988 2.49342 0.82225C2.10429 1.49738 1.87604 2.27012 1.87604 3.102C1.87604 4.664 2.68042 6.04862 3.87942 6.85025C3.15479 6.8365 2.44392 6.62613 1.84167 6.29475C1.84167 6.3085 1.84167 6.32638 1.84167 6.34425C1.84167 8.536 3.40505 10.3565 5.45517 10.7759C5.08805 10.8763 4.68792 10.9244 4.27267 10.9244C3.98392 10.9244 3.69242 10.9079 3.41879 10.8474C4.00317 12.6335 5.66142 13.9466 7.63317 13.9893C6.09867 15.1896 4.1503 15.9129 2.04104 15.9129C1.67117 15.9129 1.31642 15.8964 0.96167 15.851C2.95954 17.1394 5.3273 17.875 7.88067 17.875C16.1802 17.875 20.7177 11 20.7177 5.04075C20.7177 4.84137 20.7108 4.64887 20.7012 4.45775C21.5963 3.8225 22.3484 3.02913 22.9617 2.11613Z" />
</symbol>

<symbol id="icon-facebook" viewBox="0 0 10 20">
<path d="M8.11163 3.29509H9.92331V0.139742C9.61075 0.0967442 8.53581 0 7.28393 0C4.67183 0 2.88248 1.643 2.88248 4.66274V7.44186H0V10.9693H2.88248V19.845H6.41654V10.9701H9.18243L9.6215 7.44269H6.41571V5.01251C6.41654 3.99297 6.69106 3.29509 8.11163 3.29509Z" />
</symbol>

<symbol id="icon-close" viewBox="0 0 24 24">
<path d="M11 0.7H13V23.3H11z" transform="rotate(-45.001 12 12)"></path><path d="M0.7 11H23.3V13H0.7z" transform="rotate(-45.001 12 12)"></path>
</symbol>

<symbol id="icon-mobile-menu" viewBox="0 0 32 32">
<path fill="none" stroke-linejoin="round" stroke-linecap="round" stroke-miterlimit="4" stroke-width="2.2857" d="M4 11.333h24M4 20.667h24"></path>
</symbol>

</defs>
</svg>
